<mxfile host="65bd71144e">
    <diagram id="jRNyYEqmHzf_gvKzeI_U" name="PÃ¡gina-1">
        <mxGraphModel dx="443" dy="328" grid="1" gridSize="10" guides="1" tooltips="1" connect="1" arrows="1" fold="1" page="1" pageScale="1" pageWidth="827" pageHeight="1169" math="0" shadow="0">
            <root>
                <mxCell id="0"/>
                <mxCell id="1" parent="0"/>
                <mxCell id="4" value="" style="rounded=0;whiteSpace=wrap;html=1;rotation=-90;" vertex="1" parent="1">
                    <mxGeometry x="-10" y="125" width="280" height="190" as="geometry"/>
                </mxCell>
                <mxCell id="5" value="CADASTRO" style="text;html=1;strokeColor=none;fillColor=none;align=center;verticalAlign=middle;whiteSpace=wrap;rounded=0;" vertex="1" parent="1">
                    <mxGeometry x="100" y="80" width="60" height="30" as="geometry"/>
                </mxCell>
                <mxCell id="6" value="" style="endArrow=none;html=1;exitX=0.856;exitY=-0.005;exitDx=0;exitDy=0;exitPerimeter=0;entryX=0.855;entryY=1.026;entryDx=0;entryDy=0;entryPerimeter=0;" edge="1" parent="1" source="4" target="4">
                    <mxGeometry width="50" height="50" relative="1" as="geometry">
                        <mxPoint x="110" y="170" as="sourcePoint"/>
                        <mxPoint x="160" y="120" as="targetPoint"/>
                    </mxGeometry>
                </mxCell>
                <mxCell id="7" value="" style="rounded=0;whiteSpace=wrap;html=1;rotation=-90;" vertex="1" parent="1">
                    <mxGeometry x="430" y="155" width="220" height="160" as="geometry"/>
                </mxCell>
                <mxCell id="8" value="listaAgenda" style="text;html=1;strokeColor=none;fillColor=none;align=center;verticalAlign=middle;whiteSpace=wrap;rounded=0;" vertex="1" parent="1">
                    <mxGeometry x="500" y="125" width="80" height="40" as="geometry"/>
                </mxCell>
                <mxCell id="9" value="" style="endArrow=none;html=1;entryX=0.831;entryY=1.019;entryDx=0;entryDy=0;entryPerimeter=0;" edge="1" parent="1" target="7">
                    <mxGeometry width="50" height="50" relative="1" as="geometry">
                        <mxPoint x="460" y="160" as="sourcePoint"/>
                        <mxPoint x="390" y="250" as="targetPoint"/>
                        <Array as="points">
                            <mxPoint x="460" y="160"/>
                        </Array>
                    </mxGeometry>
                </mxCell>
                <mxCell id="10" value="" style="endArrow=none;html=1;exitX=0.313;exitY=-0.018;exitDx=0;exitDy=0;exitPerimeter=0;entryX=0.319;entryY=1.018;entryDx=0;entryDy=0;entryPerimeter=0;" edge="1" parent="1" source="4" target="4">
                    <mxGeometry width="50" height="50" relative="1" as="geometry">
                        <mxPoint x="280" y="290" as="sourcePoint"/>
                        <mxPoint x="330" y="240" as="targetPoint"/>
                    </mxGeometry>
                </mxCell>
                <mxCell id="11" value="&lt;i style=&quot;color: rgb(130, 170, 255); font-family: Consolas, &amp;quot;Courier New&amp;quot;, monospace; background-color: rgb(1, 22, 39);&quot;&gt;&lt;font style=&quot;font-size: 12px;&quot;&gt;+calcularIdade(): number&lt;br&gt;+&lt;/font&gt;&lt;/i&gt;&lt;span style=&quot;color: rgb(130, 170, 255); font-style: italic; background-color: rgb(1, 22, 39); font-family: Consolas, &amp;quot;Courier New&amp;quot;, monospace;&quot;&gt;&lt;font style=&quot;font-size: 12px;&quot;&gt;getZodiacSign(): string&lt;br&gt;+deleteCadastro(): avoid&lt;br&gt;+editCadastro(): avoid&lt;/font&gt;&lt;br&gt;&lt;/span&gt;" style="text;html=1;strokeColor=none;fillColor=none;align=center;verticalAlign=middle;whiteSpace=wrap;rounded=0;" vertex="1" parent="1">
                    <mxGeometry x="35" y="250" width="190" height="140" as="geometry"/>
                </mxCell>
                <mxCell id="13" value="- nome: string&lt;br&gt;-telefone: string&lt;br&gt;-celular: string&lt;br&gt;-fotinha: string&lt;br&gt;-data: string&lt;br&gt;-email: string&lt;br&gt;-cep: string&lt;br&gt;-cidade: string&lt;br&gt;-insta: string&lt;br&gt;-git: string" style="text;html=1;strokeColor=none;fillColor=none;align=center;verticalAlign=middle;whiteSpace=wrap;rounded=0;fontSize=12;" vertex="1" parent="1">
                    <mxGeometry x="35" y="110" width="180" height="170" as="geometry"/>
                </mxCell>
            </root>
        </mxGraphModel>
    </diagram>
</mxfile>